<svg xmlns="http://www.w3.org/2000/svg" xmlns:xlink="http://www.w3.org/1999/xlink" width="68" height="68" viewBox="0 0 68 68"><defs><style>.a{fill:#fff;}.b{filter:url(#a);}</style><filter id="a" x="0" y="0" width="68" height="68" filterUnits="userSpaceOnUse"><feOffset dy="3" input="SourceAlpha"/><feGaussianBlur stdDeviation="3" result="b"/><feFlood flood-opacity="0.161"/><feComposite operator="in" in2="b"/><feComposite in="SourceGraphic"/></filter></defs><g transform="translate(-601 -5010)"><g class="b" transform="matrix(1, 0, 0, 1, 601, 5010)"><circle class="a" cx="25" cy="25" r="25" transform="translate(9 6)"/></g><g transform="translate(616 4947.553)"><path d="M35.124,84.672H25.378V82.251h9.746v2.421ZM18.891,94.6a6.4,6.4,0,0,1,.943,3.545A7.06,7.06,0,0,1,18.759,102a6.7,6.7,0,0,1-1.712,1.9,6.615,6.615,0,0,1-2.731,1.215,16.886,16.886,0,0,1-3.417.327H0v-24.2H11.687c2.946.048,5.034.9,6.268,2.578a6.158,6.158,0,0,1,1.107,3.7,5.387,5.387,0,0,1-1.118,3.563A5.705,5.705,0,0,1,16.1,92.46,5.373,5.373,0,0,1,18.891,94.6Zm-13.31-3.81H10.7a4.853,4.853,0,0,0,2.558-.6,2.287,2.287,0,0,0,.981-2.128,2.166,2.166,0,0,0-1.3-2.232,9.142,9.142,0,0,0-2.857-.379h-4.5ZM14.735,97.8A2.6,2.6,0,0,0,13.2,95.2a6.065,6.065,0,0,0-2.42-.41H5.581v6.449H10.7a5.682,5.682,0,0,0,2.451-.424A3.051,3.051,0,0,0,14.735,97.8Zm24-3.937a22.764,22.764,0,0,1,.149,3.442H26.268a4.144,4.144,0,0,0,1.812,3.658,4.563,4.563,0,0,0,2.5.651,3.52,3.52,0,0,0,3.446-1.985H38.65a5.634,5.634,0,0,1-1.679,3.133,8.42,8.42,0,0,1-6.519,2.531,9.461,9.461,0,0,1-6.107-2.133q-2.639-2.138-2.643-6.944,0-4.511,2.385-6.911a8.36,8.36,0,0,1,6.2-2.4,9.883,9.883,0,0,1,4.076.811,7.02,7.02,0,0,1,2.992,2.567A8.556,8.556,0,0,1,38.739,93.86Zm-4.553.452a3.785,3.785,0,0,0-1.211-2.739,3.95,3.95,0,0,0-2.686-.939,3.594,3.594,0,0,0-2.7.994,4.672,4.672,0,0,0-1.208,2.684h7.81Z"/></g></g></svg>