<svg xmlns="http://www.w3.org/2000/svg" xmlns:xlink="http://www.w3.org/1999/xlink" width="504.314" height="306.849" viewBox="0 0 504.314 306.849"><defs><style>.a{fill:#ed9d64;}.b{fill:#a2483c;}.c{fill:#e95e24;}.d{fill:#f9c17d;}.e{fill:#d44b26;}.f{fill:url(#a);}.g{fill:#ef9241;opacity:0.3;mix-blend-mode:multiply;isolation:isolate;}.h{fill:url(#b);}.i{fill:#ff7d38;}.j{fill:#f8d8a0;}.k{fill:#ff6a25;}.l{fill:#e46137;}.m{fill:url(#c);}.n{fill:#791401;}.o{fill:url(#d);}.p{fill:#ed3c45;}.q{fill:#ee5c28;}.r{fill:#510;}.s{fill:#f9d69a;}.t{fill:#ba3b00;}.u{fill:url(#e);}.v{fill:#3f0700;}.w{fill:#931b00;}.x{fill:#ef9f63;}.y{fill:#f8e0ad;}.z{fill:url(#f);}.aa{fill:url(#g);}</style><linearGradient id="a" x1="0.212" y1="-0.251" x2="1.192" y2="-0.251" gradientUnits="objectBoundingBox"><stop offset="0" stop-color="#ff843d"/><stop offset="0.63" stop-color="#ff6f27"/><stop offset="0.995" stop-color="#ff6219"/></linearGradient><linearGradient id="b" x1="0.356" y1="-0.534" x2="1.337" y2="-0.534" gradientUnits="objectBoundingBox"><stop offset="0" stop-color="#931e0b"/><stop offset="1" stop-color="#681e0b"/></linearGradient><linearGradient id="c" x1="1.791" y1="-3.112" x2="1.791" y2="-4.141" gradientUnits="objectBoundingBox"><stop offset="0.005" stop-color="#f9d69a"/><stop offset="0.05" stop-color="#f9d79b"/><stop offset="0.616" stop-color="#f9e2af"/><stop offset="1" stop-color="#f9e6b7"/></linearGradient><linearGradient id="d" x1="8.243" y1="-24.4" x2="8.243" y2="-25.616" gradientUnits="objectBoundingBox"><stop offset="0" stop-color="#ff695c"/><stop offset="0.416" stop-color="#f96158"/><stop offset="1" stop-color="#ed4f50"/></linearGradient><linearGradient id="e" x1="160.429" y1="24.414" x2="161.568" y2="24.414" gradientUnits="objectBoundingBox"><stop offset="0" stop-color="#931b00"/><stop offset="0.11" stop-color="#891800"/><stop offset="0.398" stop-color="#761400"/><stop offset="0.693" stop-color="#6a1100"/><stop offset="1" stop-color="#671100"/></linearGradient><linearGradient id="f" x1="75.152" y1="-42.939" x2="75.152" y2="-43.939" gradientUnits="objectBoundingBox"><stop offset="0" stop-color="#901100"/><stop offset="0.589" stop-color="#6a1100"/><stop offset="1" stop-color="#510"/></linearGradient><linearGradient id="g" x1="89.263" y1="-45.751" x2="89.263" y2="-46.751" xlink:href="#f"/></defs><g transform="translate(-377.127 -294.613)"><path class="a" d="M518.521,382.743c-2.753,4.027,26.376,41.295,27.072,53.009s-1.364,23.763.611,22.835,22.631,3.576,29.186-5.528,29.74-36.133,27.6-60.168S538.025,354.066,518.521,382.743Z" transform="translate(210.896 108.103)"/><g transform="translate(741.061 555.554)"><path class="a" d="M540.563,408.743c-2.135,7.57-3.925,12.48-8.426,12.7s-9.385.8-8.76-6.939c.638-7.8,8.019-14.789,12.512-15.008S542.645,401.285,540.563,408.743Z" transform="translate(-522.719 -398.93)"/><path class="a" d="M547.319,410.494c.516,8.034-8.346,12.582-13.53,12.849s-9.188-3.967-7.2-11.8c2.06-8.1,7.66-11.877,12.862-12.146S546.808,402.458,547.319,410.494Z" transform="translate(-518.619 -399.083)"/><path class="a" d="M548.879,412.655c-1.254,7.947-2.97,11.026-12.1,11.358-5.2.187-7.65-5.615-6.383-13.555s5.042-11.911,10.178-11.091S550.143,404.723,548.879,412.655Z" transform="translate(-512.64 -399.262)"/><path class="a" d="M550.591,407.192c.347,8-6.9,15.754-12.113,15.854s-5.4-3.728-5.62-11.772c-.077-2.75,3.83-10.276,8.922-11.316C548.347,398.609,550.352,401.706,550.591,407.192Z" transform="translate(-508.481 -398.691)"/><path class="b" d="M527.143,411.658c.511,2.314-3.947,2.965-4.054.606s.905-6.643,2.568-6.72C527.34,405.452,526.664,409.461,527.143,411.658Z" transform="translate(-523.081 -389.881)"/><path class="b" d="M530.77,413.009c.1,2.354-4.513,2.636-4.616.274s1.5-7.478,3.177-7.558S530.658,410.645,530.77,413.009Z" transform="translate(-518.499 -389.609)"/><path class="b" d="M533.827,412.873c.1,2.359-4.391,2.838-4.506.471s1.748-7.124,3.421-7.2S533.713,410.509,533.827,412.873Z" transform="translate(-513.767 -388.986)"/><path class="b" d="M537.187,412.175c.112,2.359-4.443,2.867-4.553.506s1.935-5.922,3.611-6C537.912,406.584,537.084,409.816,537.187,412.175Z" transform="translate(-508.82 -388.186)"/></g><path class="c" d="M545.137,334.18c3.356-18.639,21.793-22.411,33.9-34.141a40.526,40.526,0,0,1-2.955,10.67c9.518-4.7,16.938-5.513,26.992-3.209a19.546,19.546,0,0,0-8.637,5.785c3.508-1.429,8.508,1.017,12.151,1.4,3.855.4,7.3-.132,11.061-.389-1.648,5-3.95,9.849-5.371,14.565a10.61,10.61,0,0,0,7.131-2.077c-2.3,10.188-4.354,17.749-15.712,20.925,2.78.307,10.966,1.571,9.874,5.738-5.209.87-10.577,1.825-15.165,4.6-3.99,2.416-6.588,6.131-10.044,9.146-8.939,7.792-20.167,1.838-28.039-4.77-5.082-4.271-9.024-9.488-12.659-15Z" transform="translate(250.921 8.104)"/><path class="d" d="M554.872,317.384c20.7,31.657,29.219,54.425,30.795,118.91.267,10.872-13,8.191-13.8,19.038,6.249-3.925,11.595,8.054,18.285,16.786,8.618-13.617,5.753-32.535,5.753-32.535s1.922,10.141,4.91,13.8c5.226-8.463,5.184-22.616,1.027-32.308,3.227,1.908,4.234,10.812,6.944,14.789,10.3-26.613-4.406-38.8-4.406-38.8s6.246,6.346,10.59,10.842c5.186-22.142-11.111-40.741-14.338-47.065,3,1.563,2.8,2.187,5.832,4.915C605,337.748,570.6,325.019,554.872,317.384Z" transform="translate(265.46 34.008)"/><path class="e" d="M479.884,381.837s-5.825,46.691-42.7,56.7-50.745,12.807-53.206,20.833c-5.431,17.729,5.944,17.038,24.536,15.829,14.986-.972,70.149,2.129,103.48-.247,29.588-2.112,64.235-40.035,52.74-67.768S494.935,359.35,479.884,381.837Z" transform="translate(8.195 115.807)"/><path class="d" d="M441.23,420.981c-1.007-7.889-3.937-15.9-8.967-21.673-33.168,8.934-45.943,11.859-48.289,19.509-5.431,17.729,5.944,17.038,24.536,15.829,5.882-.379,17.968-.132,32.483.16A58.342,58.342,0,0,0,441.23,420.981Z" transform="translate(8.195 156.361)"/><path class="f" d="M488.421,417.407s49.578-17.1,84.764-9.139c19.452-7.461,36.432-22.065,54.106-39.494,29.84-29.431,76.837-74.979,124.7-50.476,61.49,31.48,72.137,130.647-14.869,165.5-52.832,21.162-85.851,58.358-129.165,69.087C561.3,564.441,465.566,568.044,427.513,517.4S488.421,417.407,488.421,417.407Z" transform="translate(62.242 24.941)"/><path class="g" d="M751.119,315.773a64.932,64.932,0,0,0-6.261-2.77c12.779,22.441,17.694,48.389,8.64,76.119-31.862,93.633-133.7,141.945-227.13,142.907A173.746,173.746,0,0,1,419.385,500.8a43.868,43.868,0,0,0,7.259,14.078c38.053,50.645,133.791,47.042,180.442,35.482,43.314-10.73,76.333-47.925,129.165-69.087C823.256,446.42,812.609,347.254,751.119,315.773Z" transform="translate(63.111 27.465)"/><path class="h" d="M657.142,415.856c16.911-40.322,11.061-80.916-26.471-98.755-19.781,12-37.477,29.271-51.423,43.028-17.674,17.43-34.655,32.034-54.106,39.494-18.621-4.217-41.267-1.409-58.47,2.172-.471.683-.92,1.352-1.312,1.982-2.825,4.516-8.433,13.45-14.387,25.07,44.392,5.254,60.023,22.676,36.213,67.342,20.487-7.775,37.988-15.632,53.034-15.594C589.575,481.31,638.388,456.141,657.142,415.856Z" transform="translate(110.286 33.586)"/><path class="d" d="M511.809,341.557c9.508,9.857,21.863,17.953,32.3,24.995-2.032,4.9-4.244,6.436-10.58,6.825,6.159,1.623,10.438,7.049,12.323,10.124-5.558,1.292-11.537,7.348-13.742,9.964,3.239-.426,6.486-2.484,9.8-1.83-5.211,5.735-11.56,18.113-14.028,25.925-5.032,15.9-11.777,12.071-15.477,29.815-3.344,16.016-2.092,36.881,10.31,48.952,6.406,6.226,15.165,9.206,23.494,11.862-19.893,3.072-40.05-.431-59.879-2.626-19.609-2.167-32.206-7.007-46.434-21.469-.848,5.316,2.583,8.991,4.925,13.6-10.493-3.266-15.742-8.625-17.42-15.32-3.479,4.229-3.254,3.134-5.361,7.393-10.2-20.978-9.258-40.053,5.775-60.779,16.1-22.212,32.091-29.675,51.356-48.947,10.4-10.4,19.379-21.943,28.094-33.754Z" transform="translate(57.007 70.111)"/><path class="d" d="M466.395,465.126c7.5,8.381,65.295,5.887,76.765,1.591-.96-1.294-.6-2.242-1-3.094,3.835,1.421,26.708,1.893,19.459-6.713,9.463,3.995,31.261-1.93,41.173-8.73-2.067-.818-5.608-3.017-6.747-5,10.405,1.042,16.572-4.314,28.8-12.273-2.93-2.459-1.823-3.78-2.095-6.032,11.074-3.655,25.262-16.033,34.956-24.444,24.2-21,1.716-36.966-1.79-22.516-1.042,4.3-22.865,26.234-49.877,39.467-42.2,20.664-87.893,43.761-127.338,40.2Z" transform="translate(133.32 116.124)"/><path class="i" d="M526.477,384.549s-26.822,46.257-63.7,56.268-50.673,8.82-53.653,27.112,9.276,11.592,27.867,10.388,63.739-.329,93.329-2.439,74.386-37.849,62.893-65.576S541.53,362.06,526.477,384.549Z" transform="translate(47.122 119.987)"/><path class="j" d="M465.75,401c-.985.324-1.972.633-2.975.908-36.879,10.006-50.673,8.82-53.653,27.112s9.276,11.592,27.867,10.388c11.4-.743,32.787-.7,54.448-1.035C489.226,422.739,479.519,408.167,465.75,401Z" transform="translate(47.122 158.893)"/><path class="g" d="M593.206,400.563a57.9,57.9,0,0,0-13.383-19.09,29.772,29.772,0,0,1-1.631,5.408c-6.977,27.264-28.486,45.93-54.485,56.707-37.146,15.4-78.313,2.364-114.915,17.168-1.389,15.053,10.54,8.969,28.191,7.822,18.592-1.212,63.739-.329,93.329-2.439S604.7,428.291,593.206,400.563Z" transform="translate(47.128 129.725)"/><path class="k" d="M535.978,367.951c-11.777,21.783-12.61,66.831,22.948,79.166,33.445,11.6,43.758,30.934,33.984,60.245,12.313,7.767,29.885.07,36.906-9.8s8.882-31.306,10.8-52.75c2.209-24.681-3.1-66.252-11.088-95.127S554.035,334.558,535.978,367.951Z" transform="translate(226.354 58.783)"/><path class="j" d="M582.183,383.421c-9.847-6.216-22.678-2.671-28.892,7.176-.347,1.13-.686,2.249-1.025,3.376,8.239,13.392,10.981,27.5,5.428,44.152,12.313,7.767,29.885.07,36.906-9.8,3.855-5.421,6.151-14.35,7.76-24.845A59.526,59.526,0,0,0,582.183,383.421Z" transform="translate(261.568 128.018)"/><path class="g" d="M599.178,349.674c-3.421-12.375-17.791-16.9-34.508-15.425C552.963,364.022,539,396.228,559.377,419.9a92.253,92.253,0,0,1,23.1,89.3c7.014-2.122,13.387-6.59,16.988-11.652,7.021-9.864,8.882-31.306,10.8-52.75C612.475,420.12,607.167,378.549,599.178,349.674Z" transform="translate(256.704 58.794)"/><g transform="translate(806.445 556.023)"><path class="j" d="M567.5,411.96c-3.112,9.146-7.189,15.549-12.417,15.54s-6.62-3.618-5.219-13.066c1.4-9.518,11.493-14.983,16.726-14.983S570.568,402.966,567.5,411.96Z" transform="translate(-549.233 -399.45)"/><path class="j" d="M574.571,414.578c-.1,9.862-9.6,14.891-14.983,14.889s-9.164-5.423-6.5-14.891c2.773-9.794,9.57-15.113,14.946-15.111S574.693,404.7,574.571,414.578Z" transform="translate(-544.955 -399.428)"/><path class="j" d="M575.994,416.877c-1.935,9.647-3.942,13.323-13.388,13.163-5.388-.095-7.453-7.356-5.526-17s6.144-14.285,11.385-12.959S577.919,407.24,575.994,416.877Z" transform="translate(-538.743 -398.836)"/><path class="j" d="M577.176,413.7c-.277,9.822-3.391,15.921-8.775,15.726s-7.939-7.348-7.533-17.215c.132-3.371,1.052-10.515,6.374-11.473C574.139,399.49,577.366,406.968,577.176,413.7Z" transform="translate(-532.091 -397.73)"/><path class="b" d="M553.939,413.807c.386,2.431-4.713,2.89-4.635.429.062-2.451,1.544-6.847,3.444-6.852S553.568,411.493,553.939,413.807Z" transform="translate(-549.303 -387.601)"/><path class="b" d="M558.7,415.9c-.077,2.456-5.294,2.513-5.234.06s2.3-7.7,4.2-7.7S558.773,413.438,558.7,415.9Z" transform="translate(-543.083 -386.301)"/><path class="b" d="M561.675,415.657c-.068,2.451-5.182,2.725-5.1.262.047-2.459,2.533-7.308,4.433-7.318S561.743,413.193,561.675,415.657Z" transform="translate(-538.445 -385.785)"/><path class="b" d="M566.991,415.242c-.065,2.461-5.256,2.765-5.189.3s2.663-6.059,4.573-6.064C568.263,409.477,567.059,412.786,566.991,415.242Z" transform="translate(-530.635 -384.467)"/></g><g transform="translate(403.965 294.613)"><path class="l" d="M408.653,389.575c-1.828-6.67,14.529-31.777,23.73-45.885s18.135-28.224,25.955-40.5c10.041-15.771,21.905-9.311,28.174,15.35,4.483,17.659.479,59.053-25.414,81S411.1,398.519,408.653,389.575Z" transform="translate(-357.093 -294.613)"/><path class="m" d="M478.7,475.159c63.759-27.324,85.16-62.873,69.7-100.839-10.627-26.114-48.536-45.332-69.15-48.234-13.939-1.965-32.577-1.272-55.8,14.49-14.894,10.109-29.64,15.7-28.187,44.84.873,17.5,4.339,38.983,4.164,51.127-12,10.039-3.715,21.14,2.5,31.059,2.045,3.259,8.211.741,14.7,2.89C427.872,482.4,461.419,482.562,478.7,475.159Z" transform="translate(-379.798 -248.78)"/><path class="d" d="M448.932,372.8c-18.12-6.488-6.256,29-53.742,18.746,1.269,2.144,2.643,4.256,3.932,6.316,2.045,3.259,8.211.741,14.7,2.89,4.979,5.271,14.34,8.234,24.718,9.266C454.959,400.56,459.186,376.463,448.932,372.8Z" transform="translate(-376.988 -179.038)"/><path class="d" d="M492.6,370.944c-8.051-19.786-31.762-35.607-51.75-43.382,19.863,24.932,18.255,63.574,11.926,92.91a95.083,95.083,0,0,1-22.1,47.818C488.359,441.467,507.406,407.316,492.6,370.944Z" transform="translate(-323.993 -245.404)"/><path class="n" d="M435.293,375.727s.392,18.529-11.046,24.915c-12.824,7.151-18.267,3.426-18.267,3.426l-2.359-8.051a22.687,22.687,0,0,0,19.192-5.413C431.932,382.666,435.293,375.727,435.293,375.727Z" transform="translate(-364.397 -173.47)"/><path class="o" d="M406.921,386.338s-16.083,21.733.122,20.053c17.1-1.775,18.439-13.221,22.2-24.743A184.657,184.657,0,0,1,406.921,386.338Z" transform="translate(-370.09 -164.627)"/><path class="p" d="M403.987,396.381s-.561-9.922,3.1-11.136,6.89-2.247,6.89-2.247S408.214,390.159,403.987,396.381Z" transform="translate(-363.895 -162.61)"/><path class="i" d="M421.384,420.18c6.151-34.034-1.09-71.424,34.066-88.7-24,20.073-25.127,52.994-13.417,82.011,6.134,13.393,17.447,24.952,40.17,19.544,41.2-9.8,51.718-31.75,67.287-52.463-.623-2.075-1.346-4.154-2.2-6.249-10.627-26.114-48.536-45.332-69.15-48.234-13.939-1.965-32.577-1.272-55.8,14.49-14.894,10.109-29.64,15.7-28.187,44.84.873,17.5,4.339,38.983,4.164,51.127C409.283,434,420.479,431.5,421.384,420.18Z" transform="translate(-378.686 -248.78)"/><path class="g" d="M495.133,379.288c-.623-2.075-1.346-4.154-2.2-6.249-9.565-23.5-41.217-41.414-62.487-46.88,22.95,26.506,32.72,64.322,22.077,96.7C474.327,411.561,483.274,395.069,495.133,379.288Z" transform="translate(-324.329 -247.499)"/><path class="q" d="M421.215,391.055c-9.595-9.929-8.894-41.232,7.538-43.968,16.417-2.74,32.854,25.516,24.274,39.8C447.384,396.276,430.286,400.438,421.215,391.055Z" transform="translate(-347.438 -216.52)"/><path class="q" d="M423.045,363.032c-5.039-8.777-13.034-14.744-21.077-11.161-3.745,1.663-6.1,5.279-7.428,9.812,1.184,12.251,2.773,24.7,3.02,33.6a14.373,14.373,0,0,0,1.708,2.818c10.45-2.491,20.531-5.3,21.392-16.023C421.8,375.8,422.474,369.395,423.045,363.032Z" transform="translate(-377.961 -210.679)"/><path class="r" d="M415.314,399.608a46.979,46.979,0,0,1-18.731-3.815,1.832,1.832,0,0,1,1.573-3.309c.187.087,18.424,8.5,36.575-1.489,8.68-4.78,10.288-15.016,10.3-15.118a1.833,1.833,0,0,1,3.628.526c-.07.494-1.855,12.126-12.163,17.8A43.489,43.489,0,0,1,415.314,399.608Z" transform="translate(-376.466 -175.58)"/><path class="s" d="M433.824,346.81c1.07,2.621-1.962,6.346-6.78,8.328s-9.6,1.446-10.672-1.177,1.957-6.353,6.78-8.326S432.747,344.184,433.824,346.81Z" transform="translate(-345.678 -220.198)"/><path class="s" d="M409.751,352.559c.476,2.551-3.643,5.478-7.1,6.144-3.444.656-6.653-.878-7.126-3.428s1.913-5.154,5.374-5.812S409.258,350.011,409.751,352.559Z" transform="translate(-376.586 -212.958)"/><path class="t" d="M419.069,366.528s.5-10.545,7.662-12,10.4,8.333,10.4,8.333-4.406-5.757-10.415-4.491S419.069,366.528,419.069,366.528Z" transform="translate(-341.325 -205.358)"/><path class="t" d="M398.079,370.8s-1.91-8.5,3.129-10.979,9.583,4.735,9.583,4.735-4.548-3.775-8.762-1.666S398.079,370.8,398.079,370.8Z" transform="translate(-373.204 -198.004)"/><path class="u" d="M388,383.647c1.446-12.348,29.491-15.477,33.842-15.779s-1.678,13.014-6.052,27.336c-2.439,7.989-2.326,13.29-10.607,9.632C399.522,402.333,386.543,396.124,388,383.647Z" transform="translate(-387.89 -185.215)"/><path class="v" d="M394.385,382.765c-.212,4.7,4.875,8.241,9.909,10.029.573-1.748,1.075-3.9,1.81-6.306,1.374-4.493,2.907-8.884,4.234-12.789C403.157,373.918,396.292,374.442,394.385,382.765Z" transform="translate(-378.2 -176.498)"/><path class="w" d="M389.116,383.851c.082-1.75-.459-7.151,7.615-11.011s14.844-3.341,7.371,1.888S389.044,385.514,389.116,383.851Z" transform="translate(-386.06 -181.558)"/><path class="x" d="M408.946,375.094a1.636,1.636,0,1,1-2.012-1.152A1.634,1.634,0,0,1,408.946,375.094Z" transform="translate(-361.251 -176.22)"/><path class="x" d="M411.027,377.043a1.64,1.64,0,1,1-2.015-1.144A1.64,1.64,0,0,1,411.027,377.043Z" transform="translate(-358.146 -173.302)"/><path class="x" d="M413.187,375.079a1.636,1.636,0,1,1-2.01-1.149A1.631,1.631,0,0,1,413.187,375.079Z" transform="translate(-354.913 -176.24)"/><path class="x" d="M407.986,378.587a1.635,1.635,0,1,1-3.154.865,1.635,1.635,0,0,1,3.154-.865Z" transform="translate(-362.682 -170.993)"/><path class="r" d="M414.439,373.867s.6,3.808,3.835,3.735,4.64-4.244,4.64-4.244Z" transform="translate(-348.24 -177.008)"/><path class="i" d="M424.311,368.676c.833-6.86,27.715-19.145,41.577-28.72s32.383-25.965,37.347-30.772c14.607-14.128,26.274-2.316,22.733,22.888-2.536,18.038-13.136,69.835-45.409,80.33S423.191,377.887,424.311,368.676Z" transform="translate(-333.551 -281.892)"/><path class="y" d="M435.571,361.879c.768-5.378,18.833-15.844,28.259-23.768s22.122-21.314,25.543-25.224c10.059-11.505,17.335-2.676,14.18,17.1-2.257,14.151-10.922,54.9-32.468,64.145S434.534,369.1,435.571,361.879Z" transform="translate(-316.755 -274.965)"/><path class="d" d="M453.694,375.8c14.724-15.5,22.746-37.584,12.814-56.8-.913.81-1.815,1.6-2.678,2.329-9.425,7.924-27.491,18.39-28.259,23.768C434.843,350.149,441.97,368.424,453.694,375.8Z" transform="translate(-316.755 -258.186)"/><path class="s" d="M473.828,311.848c-4.8,5.059-11.926,12.261-18.205,17.841,9.932,19.212,1.91,41.3-12.814,56.8,5.037,3.169,10.916,4.334,17.392,1.556C475.963,367.71,480.8,338.194,473.828,311.848Z" transform="translate(-305.87 -268.872)"/><path class="z" d="M419.832,363.283a7.305,7.305,0,1,0,8.857-5.316A7.3,7.3,0,0,0,419.832,363.283Z" transform="translate(-340.515 -200.323)"/><path class="aa" d="M398.451,366.71a6.728,6.728,0,1,0,8.161-4.9A6.722,6.722,0,0,0,398.451,366.71Z" transform="translate(-372.423 -194.556)"/></g><g transform="translate(377.127 567.992)"><path class="d" d="M395.812,414.1c-2.818,7.558-5.069,12.44-9.682,12.28s-9.677.032-8.376-7.835c1.3-7.932,9.445-14.452,14.068-14.3S398.57,406.651,395.812,414.1Z" transform="translate(-376.501 -404.25)"/><path class="d" d="M402.575,416.427c-.162,8.258-9.61,12.161-14.939,11.991s-9.061-4.825-6.366-12.672c2.79-8.111,8.844-11.51,14.178-11.335S402.727,408.164,402.575,416.427Z" transform="translate(-372.283 -404.019)"/><path class="d" d="M403.943,419.007c-1.957,8.012-3.96,11.021-13.315,10.587-5.344-.247-7.361-6.386-5.393-14.4s6.156-11.764,11.343-10.493S405.906,411,403.943,419.007Z" transform="translate(-366.123 -403.934)"/><path class="d" d="M406.06,413.441c-.317,8.206-8.4,15.52-13.729,15.193-5.316-.334-5.2-4.269-4.763-12.517.16-2.818,4.8-10.186,10.079-10.827C404.487,404.475,406.285,407.8,406.06,413.441Z" transform="translate(-361.817 -402.879)"/><path class="b" d="M381.338,416.463c.322,2.416-4.3,2.7-4.209.272s1.489-6.708,3.194-6.65C382.051,410.142,381.031,414.169,381.338,416.463Z" transform="translate(-377.127 -395.537)"/><path class="b" d="M384.966,418.116c-.1,2.421-4.84,2.324-4.743-.1s2.169-7.523,3.887-7.46C385.829,410.6,385.059,415.7,384.966,418.116Z" transform="translate(-372.505 -394.841)"/><path class="b" d="M388.082,418.229c-.095,2.419-4.723,2.533-4.638.1s2.386-7.136,4.107-7.079S388.171,415.8,388.082,418.229Z" transform="translate(-367.696 -393.793)"/><path class="b" d="M391.527,417.792c-.085,2.424-4.78,2.563-4.7.132s2.476-5.895,4.2-5.84S391.62,415.366,391.527,417.792Z" transform="translate(-362.646 -392.55)"/></g><g transform="translate(441.167 571.086)"><path class="j" d="M419.638,417.148c-2.793,8.545-6.518,14.552-11.388,14.609s-6.206-3.3-5.014-12.116c1.2-8.874,10.54-14.081,15.4-14.133C423.523,405.441,422.389,408.733,419.638,417.148Z" transform="translate(-402.785 -405.466)"/><path class="j" d="M426.254,419.49c.01,9.188-8.782,13.978-13.789,14.046s-8.6-4.942-6.211-13.8c2.454-9.149,8.725-14.181,13.734-14.243S426.254,410.3,426.254,419.49Z" transform="translate(-398.795 -405.491)"/><path class="j" d="M427.6,421.577c-1.688,9.006-3.516,12.457-12.32,12.408-5.012-.022-7.022-6.765-5.319-15.759,1.686-9.006,5.55-13.373,10.45-12.2S429.295,412.58,427.6,421.577Z" transform="translate(-393.012 -404.97)"/><path class="j" d="M433.03,414.884c-.145,9.136-7.288,18.646-12.305,18.527-5-.12-7.478-6.75-7.211-15.943.092-3.142.868-9.807,5.815-10.762C425.732,405.468,433.125,408.61,433.03,414.884Z" transform="translate(-386.853 -404.074)"/><path class="b" d="M407.124,418.922c.387,2.262-4.349,2.743-4.314.461s1.366-6.4,3.137-6.428S406.757,416.78,407.124,418.922Z" transform="translate(-402.81 -394.343)"/><path class="b" d="M411.576,420.816c-.04,2.292-4.91,2.409-4.872.125s2.052-7.2,3.817-7.224S411.616,418.525,411.576,420.816Z" transform="translate(-396.994 -393.205)"/><path class="b" d="M414.348,420.559c-.03,2.287-4.788,2.6-4.753.309s2.277-6.845,4.052-6.865C415.4,413.972,414.383,418.268,414.348,420.559Z" transform="translate(-392.677 -392.776)"/><path class="b" d="M419.3,420.118c-.04,2.291-4.86,2.638-4.83.347s2.409-5.675,4.179-5.7S419.333,417.832,419.3,420.118Z" transform="translate(-385.391 -391.644)"/></g></g></svg>