<svg xmlns="http://www.w3.org/2000/svg" xmlns:xlink="http://www.w3.org/1999/xlink" width="842.65" height="268.098" viewBox="0 0 842.65 268.098"><defs><style>.a{fill:#d44b26;}.b{fill:#edac73;}.c{fill:#f9c17d;}.d{fill:#ff7d38;}.e{fill:#f8d8a0;}.f{fill:#a2483c;}.g{fill:#e46137;}.h{fill:url(#a);}.i{fill:#ef9241;opacity:0.3;mix-blend-mode:multiply;isolation:isolate;}.j{fill:url(#b);}.k{fill:url(#c);}.l{fill:url(#d);}.m{fill:#ee5c28;}.n{fill:url(#e);}.o{fill:#f9d69a;}.p{fill:#510;}.q{fill:#ef9f63;}.r{fill:#3f0700;}.s{fill:#931b00;}.t{fill:#ff7630;}.u{fill:#f8e0ad;}.v{fill:#ff6a25;}.w{fill:#e95e24;}.x{fill:#f9bf81;}.y{fill:#e39970;}.z{fill:#720e00;}.aa{fill:#9b9b9b;}.ab,.ac,.ae{fill:none;}.ab,.ac{stroke:#1f1f1f;}.ab{stroke-width:10px;}.ac{stroke-linecap:round;stroke-width:5px;}.ad{stroke:none;}</style><linearGradient id="a" x1="1.938" y1="6.262" x2="0.956" y2="6.262" gradientUnits="objectBoundingBox"><stop offset="0" stop-color="#ff843d"/><stop offset="0.63" stop-color="#ff6f27"/><stop offset="0.995" stop-color="#ff6219"/></linearGradient><linearGradient id="b" x1="21.986" y1="1.773" x2="20.993" y2="1.773" gradientUnits="objectBoundingBox"><stop offset="0" stop-color="#931e0b"/><stop offset="1" stop-color="#681e0b"/></linearGradient><linearGradient id="c" x1="-0.466" y1="2.936" x2="-0.466" y2="1.954" gradientUnits="objectBoundingBox"><stop offset="0.005" stop-color="#f9d69a"/><stop offset="0.05" stop-color="#f9d79b"/><stop offset="0.616" stop-color="#f9e2af"/><stop offset="1" stop-color="#f9e6b7"/></linearGradient><linearGradient id="d" x1="-0.896" y1="3.333" x2="-0.896" y2="2.314" gradientUnits="objectBoundingBox"><stop offset="0.005" stop-color="#ff6219"/><stop offset="0.37" stop-color="#ff6f27"/><stop offset="1" stop-color="#ff843d"/></linearGradient><linearGradient id="e" x1="-4.726" y1="7.795" x2="-5.772" y2="7.795" gradientUnits="objectBoundingBox"><stop offset="0" stop-color="#931b00"/><stop offset="0.11" stop-color="#891800"/><stop offset="0.398" stop-color="#761400"/><stop offset="0.693" stop-color="#6a1100"/><stop offset="1" stop-color="#671100"/></linearGradient></defs><g transform="translate(-604.407 -693.496)"><g transform="translate(604.407 693.496)"><path class="a" d="M672.508,57.971c-14.04,13.8-30.92,44.3-60.78,50.076-38.416,7.433-56.156.254-65.444,12.5-11.487,15.145-5.289,19.45,6.333,24.5,16.563,7.2,45.291,13.262,85.6,18.335s91.778,3.178,119.615-28.934C791.375,95.746,733.9-2.405,672.508,57.971Z" transform="translate(-519.912 58.617)"/><path class="b" d="M694.291,65.433s-50.264,5.445-58.48,6.507c-12.715,1.639-33.648,27.947-35.28,34.216-1.361,5.216.6,11.4,5.761,9.23-1.534,5.051,2.131,9.145,7.428,7.82,1.868,10.255,15.107,8.583,17.73,6.8,3.617-2.455,9.7-16.558,9.7-16.558s20.652,8.794,26.685,6.806C680.9,115.948,706.419,72.07,694.291,65.433Z" transform="translate(-600.111 98.826)"/><path class="c" d="M619.592,42.772c-15.207,19.852-21.948,34.437-26.17,76.871-.708,7.157,4.549,17.914,4.541,25.1-3.929-2.892-10.7-6.421-15.536-.989.078-13.917,4.313-16.209,4.313-16.209s-4.905,5.149-7.056,7.413c-1.71-10.232,1.6-16.111,4.812-22.3-1.752-.874-2.46,1.5-4.438,3.989-3.266-16.279,5.483-26.2,5.483-26.2s-4.2,4.343-7.285,7.094c-2.327-14.854,8.573-25.816,11.015-29.828-2.061.886-3.944,2.746-6.075,4.4C585.535,53.725,608.848,47.027,619.592,42.772Z" transform="translate(-466.55 64.601)"/><g transform="translate(454.041 160.066)"><path class="d" d="M430.614,73.383c22.51,13.967,55.918,31.843,97.175,42.251s56.6,8.809,60.276,29.12-10.094,13.091-30.819,12.117-91.175-.369-124.156-2.134-71.472-22.307-59.226-53.41S394.889,51.209,430.614,73.383Z" transform="translate(-371.535 -63.763)"/><g transform="translate(181.784 62.31)"><path class="e" d="M367.891,101.565c3.284,9.459,7.549,16.076,12.976,16.041s6.841-3.8,5.34-13.583c-1.509-9.866-12.017-15.469-17.434-15.439C363.335,88.612,364.663,92.252,367.891,101.565Z" transform="translate(-335.225 -88.584)"/><path class="e" d="M368.051,104.322c.171,10.232,10.056,15.388,15.634,15.361s9.469-5.676,6.637-15.484c-2.912-10.147-10-15.619-15.574-15.589S367.865,94.088,368.051,104.322Z" transform="translate(-347.143 -88.545)"/><path class="e" d="M372.84,106.725c2.059,9.994,4.162,13.8,13.962,13.573,5.586-.126,7.687-7.672,5.611-17.66-2.053-9.986-6.444-14.771-11.879-13.363C375.119,90.671,370.781,96.746,372.84,106.725Z" transform="translate(-359.824 -87.905)"/><path class="e" d="M376.917,99.389c.339,10.177,8.485,20.62,14.068,20.386,5.565-.233,8.191-7.667,7.714-17.894-.166-3.5-1.162-10.907-6.69-11.869C384.852,88.765,376.686,92.4,376.917,99.389Z" transform="translate(-376.912 -86.792)"/><path class="f" d="M365.038,103.383c-.392,2.533,4.9,2.97,4.81.432-.083-2.553-1.649-7.1-3.62-7.092S365.4,100.991,365.038,103.383Z" transform="translate(-318.148 -76.291)"/><path class="f" d="M369.562,105.575c.088,2.553,5.518,2.586,5.43.038s-2.432-7.973-4.4-7.968S369.469,103.027,369.562,105.575Z" transform="translate(-334.046 -74.899)"/><path class="f" d="M372.955,105.336c.08,2.548,5.382,2.8,5.3.249s-2.676-7.569-4.652-7.561C371.642,98.02,372.869,102.788,372.955,105.336Z" transform="translate(-345.326 -74.328)"/><path class="f" d="M378.364,104.943c.088,2.548,5.462,2.837,5.385.279s-2.8-6.268-4.765-6.263S378.281,102.39,378.364,104.943Z" transform="translate(-364.352 -72.916)"/></g></g><path class="g" d="M386.528,71.528c1.531-22.55,22.844-36.445,37.843-44.679s45.4-16.955,54.15-9.148-11.638,23.218-23.349,38.77c-9.246,12.281-7.416,26.22-26.893,31.05C419.152,89.778,385.577,85.581,386.528,71.528Z" transform="translate(152.934 22.138)"/><path class="h" d="M778.292,34.438a302.62,302.62,0,0,0-60.868-.836c-16.731,1.541-48.472,3.979-64.357,6.745-18.617,3.243-42.588-.048-49.687.309-24.93,1.253-110.108-6.929-138.138,9.426s-67.445,96.369.3,131.993,214.836,24.6,313.475,22.45C870.478,202.537,823.116,62.584,778.292,34.438Z" transform="translate(-302.057 49.023)"/><path class="i" d="M597.151,168.656c-45.407-5.056-103.6-8.279-126.52-52.694-12.336-24.114-3.188-56.043,16.081-79.1-7.913,1.546-14.706,3.665-19.676,6.565-28.033,16.35-67.445,96.369.3,131.993s214.836,24.6,313.475,22.45c26.215-.567,41.009-12.484,47.747-29.84C753.015,154.656,673.477,176.83,597.151,168.656Z" transform="translate(-303.851 55.677)"/><path class="j" d="M470.081,112.35c16.591,21.225,39.224,25.015,64.106,34.01,29.941,9.273,49.617-25.169,71.828-13.784,27.134,14.193,51.454,33.307,82.238,27.4-10.3-8.819-14.623-22.385-24.185-33.066-14.477-13.493,1.647-29.732,17.394-39.01,23.391-16.947,30.325-32.418,45.254-54.389a307.064,307.064,0,0,0-51.763.093c-16.731,1.541-48.472,3.979-64.357,6.745-18.617,3.243-42.588-.048-49.687.309-18.238.916-68.71-3.2-105.471.914C449.5,66.885,453.322,93.625,470.081,112.35Z" transform="translate(-259.588 49.022)"/><path class="c" d="M709.09,123.158c-4.26,12.74-35,13.29-61.008,13.116.439-1.875,4.639-7.5,4.682-8.626-3.532,3.379-28.394,14.716-24.521,1.85-8.485,8.866-35.195,12.682-49.283,9.913,1.878-1.873,4.717-5.954,5.031-8.673-10.915,6.073-39.754,5.573-56.939,2.633,2.048-4.084,15.81-5.45,15.039-8.051-13.872,1.24-33.633.04-67.546-6.281-17.577-3.273,2.2-45.721,12.888-31.532,3.178,4.222,34.851,18.549,60.664,21.014,92.455,8.834,134.6-1.421,155.224-7.26Z" transform="translate(-278.94 127.798)"/><path class="c" d="M478.151,32.1c-17.693-1.815-39.746,14.183-50.636,20.67,1.755,5.046,9.439,4.109,15.782,4.863-6.281,1.283-20.356,8.917-22.425,11.9,5.513,1.612,18.559,2.829,20.63,5.585-3.233-.615-21.406,11.48-24.774,11.952,2.581,3.186,4.87,9.471,16.518,16.779-11.824,7.275-6.685,17.6-.891,21.84,13.546,9.916,8.869,1.948,11.583,20,2.445,16.287-3.733,58.669-12.258,60.865,19.824,4.222,91.14,4.207,114.456-15.865,17.8-15.316,14.178-49.441.253-71.138C531.465,96.315,515.821,87.9,497.556,67.429c-9.855-11.048.736-22.927-7.35-35.3A92.234,92.234,0,0,1,478.151,32.1Z" transform="translate(-0.478 48.268)"/><path class="k" d="M585.855,132.226s-40.218-6.431-47.541-15.825c-7.242-9.286-5.164-49.551-18.6-64.269C501.415,32.087,464.651,21.6,424.014,38s-65.085,87.309-32.607,117.692c40.293,37.7,155,39.342,164.472,16.079C565.031,172.073,589.224,159.667,585.855,132.226Z" transform="translate(72.828 45.182)"/><path class="c" d="M522.244,144.063c-4.544-2.254-14.994.281-.768,22.219-6.667,13.38-70.666.316-84.337-31.535-16.465-31.239-18.192-66.489-14.462-101.136-39.02,18.34-61.714,86.785-29.951,116.5,40.293,37.7,155,39.342,164.472,16.079,6.5.216,20.56-5.98,26.979-19.4C561.932,155.241,556.826,161.209,522.244,144.063Z" transform="translate(71.51 50.764)"/><path class="l" d="M510.684,152.3c-38.74,17.5-88.263,12.363-105.441-26.3C390.567,92.964,425.019,37.781,455,32.384c48.033-8.648,62.138,1.012,80.835,12.283C559.685,78.928,550.859,133.277,510.684,152.3Z" transform="translate(46.358 43.883)"/><path class="i" d="M497.286,146.27c-17.756-36.1-23.5-82.924-2.189-116.658-3.871.5-8,1.132-12.409,1.93-29.983,5.4-64.435,60.579-49.76,93.613,12.77,28.738,43.411,38.94,74.213,35.1A43.828,43.828,0,0,1,497.286,146.27Z" transform="translate(18.672 44.725)"/><path class="m" d="M408.708,90.192c-6.3-15.624,6.027-44.7,19.1-41.945,19.874,4.18,28.65,40.1,12.4,52.318C429.519,108.6,414.66,104.96,408.708,90.192Z" transform="translate(133.433 72.594)"/><path class="n" d="M390.865,108.2c11.076.281,24.762-23.238,15.938-31.582C394.638,65.109,374.422,68,374.422,68S377.327,96.543,390.865,108.2Z" transform="translate(254.29 102.213)"/><path class="o" d="M427.849,54.456c-1.067,2.985-7.2,3.54-11.264,2.116-4.037-1.426-6.474-5.008-5.415-7.993s5.184-4.255,9.238-2.827S428.888,51.464,427.849,54.456Z" transform="translate(144.285 68.217)"/><path class="p" d="M415.869,99.763c18.986,0,25.6-12.12,25.919-12.742a1.995,1.995,0,0,0-3.529-1.86c-.341.638-8.648,15.481-34.939,8.944-18.546-4.606-19.744-13.322-19.754-13.41a2.033,2.033,0,0,0-2.171-1.777,1.978,1.978,0,0,0-1.8,2.121c.035.469,1.137,11.568,22.769,16.937A55.973,55.973,0,0,0,415.869,99.763Z" transform="translate(208.937 119.179)"/><path class="q" d="M388.657,79.09a1.783,1.783,0,1,0,1.7-1.865A1.786,1.786,0,0,0,388.657,79.09Z" transform="translate(235.965 116.633)"/><path class="q" d="M390.924,83.816a1.785,1.785,0,1,0,1.7-1.86A1.787,1.787,0,0,0,390.924,83.816Z" transform="translate(228.006 123.779)"/><path class="q" d="M392.692,80.578a1.781,1.781,0,1,0,1.707-1.855A1.783,1.783,0,0,0,392.692,80.578Z" transform="translate(221.804 118.896)"/><path class="q" d="M386.8,83.156a1.781,1.781,0,1,0,3.56-.153,1.781,1.781,0,0,0-3.56.153Z" transform="translate(242.494 122.789)"/><path class="p" d="M411.307,77.61s.64,4.155-2.736,5.149-6.218-2.859-6.218-2.859Z" transform="translate(182.446 117.217)"/><path class="r" d="M396.443,78.361c5,6.657-.605,14.186-5.847,18.227-5.354-5.7-8.821-14.065-11.01-21.534C384.78,73.71,392.386,72.962,396.443,78.361Z" transform="translate(252.563 111.89)"/><path class="s" d="M399.751,78.836c-.67-1.78-1.9-7.561-11.555-8.879s-16.5,1.464-7.011,4.406S400.381,80.538,399.751,78.836Z" transform="translate(258.566 105.145)"/><path class="t" d="M400.792,87.558c-2.523-27.968,23.961-50.7,40.755-63.73s52.406-29.667,64.661-21.8S496.463,32.8,485.126,54.163c-8.949,16.872-3.979,33.621-26.936,43.348C447.436,102.068,402.366,104.992,400.792,87.558Z" transform="translate(88.329 0)"/><path class="u" d="M404.683,81.02c-.851-21.493,18.541-44.9,30.192-56.279C449.635,10.332,468.453-.515,477.819,5.549c5.716,3.7-10.551,26.82-19.237,43.185-6.853,12.926-4.31,27.455-21.9,34.9C428.453,87.128,405.035,89.924,404.683,81.02Z" transform="translate(109.011 5.788)"/><path class="c" d="M421.373,65.222c.294,7.4,16.493,6.713,26.695,4.27,7.677-17.354,8.151-37.547-1.672-55.2C434.964,26.731,420.642,46.683,421.373,65.222Z" transform="translate(92.321 21.586)"/><path class="o" d="M425.175,9.526c-2.53,2.081-5.023,4.293-7.4,6.615-1.6,1.561-3.351,3.369-5.169,5.35,9.823,17.653,9.348,37.846,1.672,55.2a35.242,35.242,0,0,0,5.309-1.652c17.585-7.448,15.042-21.978,21.9-34.9.151-.281.316-.572.469-.856C439.06,27.56,433.507,16.849,425.175,9.526Z" transform="translate(126.111 14.388)"/><path class="v" d="M661,71.5c-13.548,14.286-31.226,55.257-61.621,54.4s-69.142,23.908-57.353,28.55c16.807,6.615,47.93,19.922,88.391,23.587s91.833-.033,118.533-33.1C781.114,105.09,720.238,9.01,661,71.5Z" transform="translate(-509.23 76.917)"/><g transform="translate(387.68 170.557)"><path class="d" d="M457.051,77.562c22.508,13.97,55.915,31.846,97.172,42.251s56.6,8.814,60.275,29.122-10.094,13.089-30.819,12.117-91.173-.374-124.158-2.136-71.474-22.3-59.221-53.407S421.324,55.391,457.051,77.562Z" transform="translate(-397.97 -67.942)"/><path class="e" d="M491.994,120.431c-3.678-20.309-19.013-18.717-60.275-29.122-5.447-1.373-10.752-2.887-15.918-4.493a86.692,86.692,0,0,0-17.831,44.912c26.416.231,52.037.3,63.205.821C481.9,133.52,495.675,140.742,491.994,120.431Z" transform="translate(-275.466 -39.437)"/><path class="i" d="M402.209,81.011c-.625,1.554-1.253,3.135-1.89,4.76-12.253,31.1,26.23,51.648,59.221,53.407s103.436,1.162,124.158,2.136c17.889.838,30.588,6.316,31.367-5.254C544.941,112.106,444.85,146.651,402.209,81.011Z" transform="translate(-397.989 -48.203)"/><g transform="translate(181.784 62.314)"><path class="e" d="M394.329,105.744c3.281,9.461,7.544,16.079,12.973,16.044s6.841-3.808,5.339-13.586c-1.509-9.871-12.017-15.474-17.434-15.436C389.77,92.785,391.1,96.428,394.329,105.744Z" transform="translate(-361.66 -92.765)"/><path class="e" d="M394.486,108.5c.168,10.235,10.054,15.388,15.632,15.361s9.469-5.676,6.64-15.486c-2.912-10.144-10-15.617-15.577-15.587S394.3,98.269,394.486,108.5Z" transform="translate(-373.575 -92.729)"/><path class="e" d="M399.275,110.909c2.059,9.994,4.162,13.8,13.968,13.571,5.58-.131,7.682-7.674,5.608-17.658-2.051-9.994-6.441-14.778-11.876-13.367C401.555,94.851,397.217,100.926,399.275,110.909Z" transform="translate(-386.262 -92.089)"/><path class="e" d="M403.353,103.566c.339,10.177,8.485,20.622,14.068,20.386,5.565-.233,8.191-7.662,7.712-17.894-.163-3.494-1.16-10.9-6.687-11.866C411.29,92.942,403.124,96.584,403.353,103.566Z" transform="translate(-403.348 -90.976)"/><path class="f" d="M391.473,107.567c-.389,2.525,4.9,2.967,4.81.424s-1.649-7.1-3.62-7.089S391.835,105.172,391.473,107.567Z" transform="translate(-344.583 -80.475)"/><path class="f" d="M396,109.754c.088,2.548,5.518,2.583,5.43.038s-2.433-7.97-4.4-7.965S395.906,107.2,396,109.754Z" transform="translate(-360.481 -79.08)"/><path class="f" d="M399.387,109.52c.085,2.54,5.385,2.794,5.3.249s-2.681-7.574-4.654-7.566C398.077,102.2,399.3,106.964,399.387,109.52Z" transform="translate(-371.761 -78.512)"/><path class="f" d="M404.8,109.119c.09,2.551,5.463,2.834,5.385.284s-2.8-6.273-4.765-6.263S404.715,106.566,404.8,109.119Z" transform="translate(-390.786 -77.097)"/></g></g><path class="w" d="M661.092,38.087c-30.824,1.4-70.8-13.94-93.49,14.535-5.721,7.18-9.03,15.9-12.034,24.476a45.264,45.264,0,0,1,8.058-4.433c-1.951,7.313-1.09,14.389-3.653,21.7,7.767-4.017,17.447-9.989,19.872-19.159-.216,5.749-2.375,12.78-6.062,17.158,15.348-.816,36.827-11.52,46.3-22.269C627.3,61.9,633.92,53.142,643.608,47.506Z" transform="translate(-451.911 53.164)"/><g transform="translate(2.957 193.103)"><path class="o" d="M704.664,76.923s-60.677,5.606-70.6,6.693c-15.353,1.679-40.693,28.055-42.683,34.329-1.662,5.221.685,11.4,6.924,9.213-1.873,5.058,2.543,9.14,8.939,7.795,2.222,10.252,18.2,8.538,21.378,6.748,4.37-2.468,11.753-16.591,11.753-16.591s24.9,8.728,32.19,6.723C688.344,127.484,719.274,83.523,704.664,76.923Z" transform="translate(-590.865 -76.923)"/><path class="x" d="M661.532,79.555c-.354.023-.685.05-1,.085-15.353,1.679-40.693,28.055-42.683,34.329-1.662,5.221.685,11.4,6.924,9.213-1.873,5.058,2.543,9.14,8.939,7.795.778,3.6,3.266,5.7,6.286,6.866C660.139,122.3,679.17,95.247,661.532,79.555Z" transform="translate(-617.335 -72.948)"/><path class="y" d="M637.5,98.34c-3.183,5.139-9.057,7.267-13.114,4.755s-4.767-8.721-1.581-13.862,9.055-7.27,13.114-4.755S640.69,93.2,637.5,98.34Z" transform="translate(-597.068 -67.109)"/><path class="y" d="M634.054,103.7c-2.375,3.06-5.693,4.458-7.41,3.125s-1.185-4.9,1.187-7.955,5.7-4.458,7.411-3.123S636.429,100.644,634.054,103.7Z" transform="translate(-605.922 -49.25)"/><path class="y" d="M637.392,101.34c-2.37,3.06-5.691,4.458-7.411,3.123s-1.182-4.9,1.187-7.953,5.7-4.456,7.413-3.125S639.769,98.28,637.392,101.34Z" transform="translate(-617.64 -52.82)"/><path class="y" d="M640.056,98.854c-2.372,3.058-5.693,4.456-7.408,3.123s-1.187-4.9,1.185-7.955,5.693-4.456,7.413-3.123S642.431,95.794,640.056,98.854Z" transform="translate(-626.991 -56.577)"/></g></g><ellipse class="z" cx="10.5" cy="12" rx="10.5" ry="12" transform="matrix(0.966, -0.259, 0.259, 0.966, 1155.286, 842.385)"/><rect class="aa" width="192" height="8" rx="4" transform="translate(1223 950)"/><rect class="aa" width="9" height="206" rx="4.5" transform="translate(1438.168 753.564) rotate(9)"/><g class="ab" transform="translate(1128.109 835.077) rotate(-13)"><rect class="ad" width="66" height="51" rx="18"/><rect class="ae" x="5" y="5" width="56" height="41" rx="13"/></g><path class="ab" d="M1194.591,852.5s10.124-11.361,17.423-9.152"/><line class="ac" x2="4" y2="29" transform="translate(1209.5 825.5)"/></g></svg>