<svg xmlns="http://www.w3.org/2000/svg" xmlns:xlink="http://www.w3.org/1999/xlink" width="68" height="68" viewBox="0 0 68 68"><defs><style>.a{fill:url(#a);}.b{fill:#fff;}.c{filter:url(#b);}</style><radialGradient id="a" cx="0.018" cy="0.908" r="1.446" gradientTransform="matrix(0.052, -0.999, 0.849, 0.044, 0.07, 0.057)" gradientUnits="objectBoundingBox"><stop offset="0" stop-color="#fed576"/><stop offset="0.263" stop-color="#f47133"/><stop offset="0.609" stop-color="#bc3081"/><stop offset="1" stop-color="#4c63d2"/></radialGradient><filter id="b" x="0" y="0" width="68" height="68" filterUnits="userSpaceOnUse"><feOffset dy="3" input="SourceAlpha"/><feGaussianBlur stdDeviation="3" result="c"/><feFlood flood-opacity="0.161"/><feComposite operator="in" in2="c"/><feComposite in="SourceGraphic"/></filter></defs><g transform="translate(-9.8 -13.403)"><g transform="translate(18.8 19.403)"><g class="c" transform="matrix(1, 0, 0, 1, -9, -6)"><path class="a" d="M18.8,43.769v1.352A25.3,25.3,0,0,0,41.952,69.4h3.813A25.217,25.217,0,0,0,68.8,45.1V43.769a25.008,25.008,0,0,0-50,0Z" transform="translate(-9.8 -13.4)"/></g></g><g transform="translate(29.003 29.225)"><g transform="translate(0)"><path class="b" d="M130.313,115.136c3.982,0,4.457.011,6.031.084a8.218,8.218,0,0,1,2.767.518,4.572,4.572,0,0,1,1.711,1.13,4.8,4.8,0,0,1,1.12,1.743,8.853,8.853,0,0,1,.518,2.82c.074,1.605.084,2.081.084,6.136s-.011,4.531-.084,6.137a8.282,8.282,0,0,1-.518,2.82,4.666,4.666,0,0,1-1.12,1.743,4.572,4.572,0,0,1-1.711,1.13,8.013,8.013,0,0,1-2.767.518c-1.574.074-2.049.084-6.031.084s-4.457-.011-6.031-.084a8.218,8.218,0,0,1-2.767-.518,4.573,4.573,0,0,1-1.711-1.13,4.8,4.8,0,0,1-1.12-1.743,8.853,8.853,0,0,1-.518-2.82c-.074-1.605-.084-2.081-.084-6.137s.011-4.531.084-6.136a8.282,8.282,0,0,1,.518-2.82,4.667,4.667,0,0,1,1.12-1.743,4.573,4.573,0,0,1,1.711-1.13,8.014,8.014,0,0,1,2.767-.518c1.574-.063,2.049-.084,6.031-.084m0-2.736c-4.056,0-4.563.021-6.147.1a10.7,10.7,0,0,0-3.623.708,7.268,7.268,0,0,0-2.64,1.753,7.361,7.361,0,0,0-1.722,2.693,11.3,11.3,0,0,0-.7,3.686c-.074,1.616-.084,2.134-.084,6.253s.021,4.637.084,6.253a11.36,11.36,0,0,0,.7,3.686,7.448,7.448,0,0,0,1.722,2.693,7.357,7.357,0,0,0,2.64,1.753,10.7,10.7,0,0,0,3.623.708c1.595.074,2.1.1,6.147.1s4.563-.021,6.147-.1a10.7,10.7,0,0,0,3.623-.708,7.268,7.268,0,0,0,2.64-1.753,7.361,7.361,0,0,0,1.722-2.693,11.3,11.3,0,0,0,.7-3.686c.074-1.616.085-2.134.085-6.253s-.021-4.637-.085-6.253a11.359,11.359,0,0,0-.7-3.686,7.448,7.448,0,0,0-1.722-2.693,7.357,7.357,0,0,0-2.64-1.753,10.7,10.7,0,0,0-3.623-.708c-1.584-.074-2.1-.1-6.147-.1Z" transform="translate(-115.4 -112.4)"/><path class="b" d="M191.757,182.3a7.8,7.8,0,1,0,7.657,7.795A7.72,7.72,0,0,0,191.757,182.3Zm0,12.854a5.06,5.06,0,1,1,4.975-5.059A5.015,5.015,0,0,1,191.757,195.154Z" transform="translate(-176.844 -174.917)"/><ellipse class="b" cx="1.785" cy="1.817" rx="1.785" ry="1.817" transform="translate(21.092 5.26)"/></g></g></g></svg>