<svg xmlns="http://www.w3.org/2000/svg" width="110.57" height="85" viewBox="0 0 110.57 85"><defs><style>.a{fill:#1f1f1f;}</style></defs><g transform="translate(0 -59.201)"><g transform="translate(0 59.201)"><g transform="translate(0 0)"><path class="a" d="M110.565,136.268c0-.016,0-.032,0-.048a1.588,1.588,0,0,0-.028-.189c0-.006,0-.012,0-.018a1.568,1.568,0,0,0-.047-.166l-.016-.043q-.027-.074-.061-.143c0-.008-.006-.017-.011-.025l-8.662-17.086V62.336A3.139,3.139,0,0,0,98.6,59.2H11.973a3.139,3.139,0,0,0-3.135,3.135v56.213L.175,135.636c0,.008-.007.017-.011.025-.023.046-.043.094-.061.143l-.016.043a1.646,1.646,0,0,0-.047.166l0,.017a1.6,1.6,0,0,0-.028.189c0,.016,0,.032,0,.048,0,.034-.005.067-.005.1v4.109A3.728,3.728,0,0,0,3.724,144.2H106.846a3.728,3.728,0,0,0,3.724-3.724v-4.109C110.57,136.334,110.567,136.3,110.565,136.268ZM12.077,62.441H98.493v54.876H12.077Zm-.625,58.116H99.118l7.2,14.192H70.727l-1.786-6.476A3.058,3.058,0,0,0,66,126.033H44.568a3.058,3.058,0,0,0-2.94,2.239l-1.786,6.477H4.257Zm55.915,14.192H43.2l1.51-5.476H65.857Zm39.963,5.728a.485.485,0,0,1-.485.485H3.724a.485.485,0,0,1-.485-.485v-2.489H107.33Z" transform="translate(0 -59.201)"/></g></g><g transform="translate(15.167 92.84)"><g transform="translate(0 0)"><path class="a" d="M150.525,213.756a1.608,1.608,0,0,0-1.635,1.582v16.038h-73.7V215.338a1.635,1.635,0,0,0-3.269,0v16.721a2.525,2.525,0,0,0,2.563,2.48H149.6a2.525,2.525,0,0,0,2.563-2.48V215.338A1.609,1.609,0,0,0,150.525,213.756Z" transform="translate(-71.923 -213.756)"/></g></g><g transform="translate(15.167 65.739)"><g transform="translate(0 0)"><path class="a" d="M149.6,90.2H74.486a2.525,2.525,0,0,0-2.563,2.48V109.4a1.635,1.635,0,0,0,3.269,0V93.366h73.7V109.4a1.635,1.635,0,0,0,3.269,0V92.683A2.525,2.525,0,0,0,149.6,90.2Z" transform="translate(-71.923 -90.203)"/></g></g></g></svg>