<svg xmlns="http://www.w3.org/2000/svg" xmlns:xlink="http://www.w3.org/1999/xlink" width="78.583" height="85.946" viewBox="0 0 78.583 85.946"><defs><style>.a,.b{fill:#fff;}.a{clip-rule:evenodd;}.c{clip-path:url(#a);}.d{clip-path:url(#b);}</style><clipPath id="a"><path class="a" d="M78.913-259.575a20.4,20.4,0,0,0-1.819-4.706c-1.851-3.344-4.532-5.426-8.044-7.256s-7.687-2.492-12.524-2.492H40.69v44.544H56.526c4.837,0,9.012-.683,12.524-2.555a18.757,18.757,0,0,0,8.044-7.6q.128-.233.25-.472a27.972,27.972,0,0,1-16.528,15.842v4.593a5.3,5.3,0,0,1-5.3,5.3,5.3,5.3,0,0,1-5.3-5.3V-222.7a27.74,27.74,0,0,1-10.6-2.613,27.74,27.74,0,0,1-10.6,2.613v3.019a5.3,5.3,0,0,1-5.3,5.3,5.3,5.3,0,0,1-5.3-5.3v-4.593A27.973,27.973,0,0,1,1.96-239.944a19.534,19.534,0,0,0,7.53,7.966,21.827,21.827,0,0,0,11.262,2.871q8.328,0,13.817-4.29a19.57,19.57,0,0,0,6.126-8.1c-.008-1.219-.008-1.646-.008-3.571h-8.2a12.218,12.218,0,0,1-4.511,5.678,12.751,12.751,0,0,1-7.35,2.082,11.815,11.815,0,0,1-6.372-1.767,11.79,11.79,0,0,1-4.417-5.047,17.43,17.43,0,0,1-1.577-7.634,17.586,17.586,0,0,1,1.577-7.7,11.79,11.79,0,0,1,4.417-5.047,11.815,11.815,0,0,1,6.372-1.767,12.751,12.751,0,0,1,7.35,2.082,12.218,12.218,0,0,1,4.511,5.678h8.194v-3.564a19.553,19.553,0,0,0-6.112-8.108q-5.489-4.29-13.817-4.29A21.783,21.783,0,0,0,9.459-271.6a19.61,19.61,0,0,0-7.54,8.044A22.741,22.741,0,0,0,.33-259.624c2.776-14.588,17.75-25.934,36.261-27.058l-.291.025c-1.712.151-2.922-.045-2.614,3.417s7,2.013,5.868,7.6c2.965,0,5.1-3.661,6.185-7.314s-1.037-3.525-2.2-3.622c-.9-.075-1.651-.13-2.308-.167C60.409-286.13,76.091-274.556,78.913-259.575ZM23.591-218.456a2.019,2.019,0,0,0,2.019-2.019,2.019,2.019,0,0,0-2.019-2.019,2.019,2.019,0,0,0-2.019,2.019A2.019,2.019,0,0,0,23.591-218.456Zm-3.028.5a.757.757,0,0,0,.757-.757.757.757,0,0,0-.757-.757.757.757,0,0,0-.757.757A.757.757,0,0,0,20.563-217.952Zm1.767,1.514a.757.757,0,0,0,.757-.757.757.757,0,0,0-.757-.757.757.757,0,0,0-.757.757A.757.757,0,0,0,22.33-216.437Zm2.524,0a.757.757,0,0,0,.757-.757.757.757,0,0,0-.757-.757.757.757,0,0,0-.757.757A.757.757,0,0,0,24.853-216.437ZM26.62-217.7a.757.757,0,0,0,.757-.757.757.757,0,0,0-.757-.757.757.757,0,0,0-.757.757A.757.757,0,0,0,26.62-217.7Zm28.77-.757a2.019,2.019,0,0,0,2.019-2.019,2.019,2.019,0,0,0-2.019-2.019,2.019,2.019,0,0,0-2.019,2.019A2.019,2.019,0,0,0,55.39-218.456Zm-3.028.5a.757.757,0,0,0,.757-.757.757.757,0,0,0-.757-.757.757.757,0,0,0-.757.757A.757.757,0,0,0,52.362-217.952Zm1.767,1.514a.757.757,0,0,0,.757-.757.757.757,0,0,0-.757-.757.757.757,0,0,0-.757.757A.757.757,0,0,0,54.128-216.437Zm2.524,0a.757.757,0,0,0,.757-.757.757.757,0,0,0-.757-.757.757.757,0,0,0-.757.757A.757.757,0,0,0,56.652-216.437Zm1.767-1.262a.757.757,0,0,0,.757-.757.757.757,0,0,0-.757-.757.757.757,0,0,0-.757.757A.757.757,0,0,0,58.419-217.7Zm-2.4-19.736H49.838v-28.833h6.183q7.193,0,11.136,3.786T71.1-251.82q0,6.814-3.943,10.6T56.021-237.435Z" transform="translate(-0.33 286.748)"/></clipPath><clipPath id="b"><path class="b" d="M-564-434.43h363.416V-761H-564Z" transform="translate(564 761)"/></clipPath></defs><g transform="translate(-0.099 0)"><path class="b" d="M4.62-8.544a4.12,4.12,0,0,1,2.556.762A3.885,3.885,0,0,1,8.568-5.7H7.416A2.821,2.821,0,0,0,6.372-7.038a3.026,3.026,0,0,0-1.764-.5,2.773,2.773,0,0,0-1.482.4A2.785,2.785,0,0,0,2.094-5.982a3.859,3.859,0,0,0-.378,1.758,3.794,3.794,0,0,0,.378,1.74A2.793,2.793,0,0,0,3.126-1.338a2.773,2.773,0,0,0,1.482.4,3.026,3.026,0,0,0,1.764-.5A2.821,2.821,0,0,0,7.416-2.772H8.568A3.885,3.885,0,0,1,7.176-.69,4.12,4.12,0,0,1,4.62.072a4.009,4.009,0,0,1-2.1-.546A3.764,3.764,0,0,1,1.1-2a4.743,4.743,0,0,1-.51-2.226A4.806,4.806,0,0,1,1.1-6.468,3.755,3.755,0,0,1,2.52-8,4.009,4.009,0,0,1,4.62-8.544Zm9.4-.024a4.111,4.111,0,0,1,2.118.552,3.928,3.928,0,0,1,1.482,1.542,4.6,4.6,0,0,1,.54,2.238A4.6,4.6,0,0,1,17.618-2,3.928,3.928,0,0,1,16.136-.456,4.111,4.111,0,0,1,14.018.1a4.175,4.175,0,0,1-2.13-.552A3.9,3.9,0,0,1,10.394-2a4.6,4.6,0,0,1-.54-2.238,4.6,4.6,0,0,1,.54-2.238,3.9,3.9,0,0,1,1.494-1.542A4.175,4.175,0,0,1,14.018-8.568Zm0,1.02a3.053,3.053,0,0,0-1.566.4,2.785,2.785,0,0,0-1.08,1.152,3.76,3.76,0,0,0-.39,1.758,3.769,3.769,0,0,0,.39,1.752,2.777,2.777,0,0,0,1.08,1.158,3.053,3.053,0,0,0,1.566.4,3,3,0,0,0,1.554-.408,2.826,2.826,0,0,0,1.08-1.158,3.733,3.733,0,0,0,.39-1.746,3.76,3.76,0,0,0-.39-1.758,2.785,2.785,0,0,0-1.08-1.152A3.03,3.03,0,0,0,14.018-7.548ZM24.232,0,22.024-3.456H20.836V0H19.744V-8.46h2.784a3.013,3.013,0,0,1,2.16.69,2.417,2.417,0,0,1,.72,1.83,2.367,2.367,0,0,1-.576,1.662,2.689,2.689,0,0,1-1.668.786L25.468,0Zm-3.4-4.248h1.6q1.86,0,1.86-1.632t-1.86-1.632h-1.6Zm9.854-4.3a4.087,4.087,0,0,1,2.478.732,3.561,3.561,0,0,1,1.35,1.992H33.366a2.588,2.588,0,0,0-1-1.236A2.926,2.926,0,0,0,30.7-7.524a3,3,0,0,0-1.548.4A2.806,2.806,0,0,0,28.08-5.976a3.724,3.724,0,0,0-.39,1.752,3.768,3.768,0,0,0,.4,1.782,2.8,2.8,0,0,0,1.1,1.152,3.19,3.19,0,0,0,1.614.4,3.055,3.055,0,0,0,1.428-.336A2.764,2.764,0,0,0,33.288-2.2a3.329,3.329,0,0,0,.5-1.506H30.462v-.816H34.71v1.008a4.2,4.2,0,0,1-.624,1.824A3.743,3.743,0,0,1,32.694-.4,4.077,4.077,0,0,1,30.7.084a4.208,4.208,0,0,1-2.16-.546,3.8,3.8,0,0,1-1.458-1.524,4.679,4.679,0,0,1-.522-2.238,4.679,4.679,0,0,1,.522-2.238,3.836,3.836,0,0,1,1.458-1.53A4.148,4.148,0,0,1,30.69-8.544Zm6.7.084V0H36.3V-8.46Zm9.206,4.212a4.532,4.532,0,0,1-.528,2.22,3.675,3.675,0,0,1-1.53,1.494A5,5,0,0,1,42.154,0H39.142V-8.472h3.012a5.093,5.093,0,0,1,2.382.522,3.611,3.611,0,0,1,1.53,1.476A4.523,4.523,0,0,1,46.594-4.248ZM42.01-1.512a2.935,2.935,0,0,0,2.118-.72,2.663,2.663,0,0,0,.75-2.016,2.679,2.679,0,0,0-.75-2.028A2.935,2.935,0,0,0,42.01-7H40.834v5.484Zm7.658-5.616v2.2h3v1.3h-3v2.28h3.36V0H47.976V-8.472h5.052v1.344Zm5.906-1.344,2.268,6.708,2.28-6.708h1.812L58.934,0H56.762l-3-8.472Zm13.2,6.156a2.3,2.3,0,0,1-.324,1.194,2.327,2.327,0,0,1-.96.876,3.328,3.328,0,0,1-1.548.33,4.017,4.017,0,0,1-1.608-.306A2.719,2.719,0,0,1,63.2-1.1a2.544,2.544,0,0,1-.486-1.344h1.8a1.375,1.375,0,0,0,.414.858,1.3,1.3,0,0,0,.942.342,1.1,1.1,0,0,0,.81-.282.983.983,0,0,0,.282-.726.951.951,0,0,0-.228-.654,1.664,1.664,0,0,0-.576-.414q-.348-.156-.96-.36a9.49,9.49,0,0,1-1.3-.522,2.4,2.4,0,0,1-.858-.75,2.149,2.149,0,0,1-.354-1.284,2.088,2.088,0,0,1,.786-1.722,3.231,3.231,0,0,1,2.082-.63,3.3,3.3,0,0,1,2.142.648,2.446,2.446,0,0,1,.906,1.728H66.784a1.27,1.27,0,0,0-.384-.75,1.192,1.192,0,0,0-.852-.294,1.124,1.124,0,0,0-.756.246A.887.887,0,0,0,64.5-6.3a.888.888,0,0,0,.222.618,1.694,1.694,0,0,0,.564.4,9.256,9.256,0,0,0,.93.348,12.364,12.364,0,0,1,1.326.54,2.336,2.336,0,0,1,.87.756A2.222,2.222,0,0,1,68.776-2.316Z" transform="translate(5 85.85)"/><g transform="translate(-0.232 286.748)"><g class="c" transform="translate(0.33 -286.748)"><g class="d" transform="translate(-142.421 -119.688)"><path class="b" d="M-4.67-291.748H76.437v74.891H-4.67Z" transform="translate(145.829 410.174)"/></g></g></g></g></svg>