<svg xmlns="http://www.w3.org/2000/svg" width="84.326" height="85" viewBox="0 0 84.326 85"><defs><style>.a{fill:#1f1f1f;}</style></defs><g transform="translate(-1513.5 230.9)"><path class="a" d="M89.191,52.747a6.425,6.425,0,0,0-5.951,4.267H66.958a12.562,12.562,0,0,0-2.695-5.951V43.428a4.624,4.624,0,0,1,4.6-4.6H83.577a8.65,8.65,0,0,0,8.646-8.646V25.013A6.613,6.613,0,0,0,90.2,12.1a6.566,6.566,0,0,0-6.625,6.625,6.642,6.642,0,0,0,4.6,6.288v5.165a4.624,4.624,0,0,1-4.6,4.6H68.755a8.65,8.65,0,0,0-8.646,8.646v4.379a10.307,10.307,0,0,0-3.593-1.123V31.076a7.3,7.3,0,1,0-4.042,0V46.684a13.372,13.372,0,0,0-3.593,1.123V43.428a8.65,8.65,0,0,0-8.646-8.646H25.75a4.624,4.624,0,0,1-4.6-4.6V25.013a6.625,6.625,0,1,0-4.042,0v5.165a8.65,8.65,0,0,0,8.646,8.646H40.459a4.624,4.624,0,0,1,4.6,4.6v7.635a12.562,12.562,0,0,0-2.695,5.951H25.974a6.287,6.287,0,1,0-5.951,8.309,6.425,6.425,0,0,0,5.951-4.267H42.256a12.331,12.331,0,0,0,5.165,8.2V82.166a5.631,5.631,0,0,1-5.614,5.614H35.518a7.3,7.3,0,1,0,0,4.042h6.288a9.656,9.656,0,0,0,9.657-9.657v-11a14.155,14.155,0,0,0,3.144.449,9.687,9.687,0,0,0,3.144-.449v11a9.656,9.656,0,0,0,9.657,9.657H73.7a7.3,7.3,0,1,0,0-4.042H67.408a5.631,5.631,0,0,1-5.614-5.614v-12.8a12.6,12.6,0,0,0,5.165-8.2H83.24a6.3,6.3,0,1,0,5.951-8.421Zm.786-36.493a2.583,2.583,0,1,1,0,5.165,2.541,2.541,0,0,1-2.583-2.583A2.689,2.689,0,0,1,89.977,16.255Zm-70.74,0a2.583,2.583,0,1,1-2.583,2.583A2.541,2.541,0,0,1,19.237,16.255Zm9.32,76.8A3.256,3.256,0,1,1,31.813,89.8,3.333,3.333,0,0,1,28.557,93.058Zm52.1-6.513A3.256,3.256,0,1,1,77.4,89.8,3.333,3.333,0,0,1,80.657,86.545ZM51.351,24a3.256,3.256,0,1,1,3.256,3.256A3.259,3.259,0,0,1,51.351,24ZM20.023,61.281a2.246,2.246,0,1,1,2.246-2.246A2.252,2.252,0,0,1,20.023,61.281ZM57.976,66.9h-.225v.112a9.084,9.084,0,0,1-6.288,0V66.9h-.225a8.541,8.541,0,1,1,11.9-7.86A8.652,8.652,0,0,1,57.976,66.9Zm31.215-5.614a2.246,2.246,0,1,1,2.246-2.246A2.252,2.252,0,0,1,89.191,61.281Z" transform="translate(1501 -243)"/></g></svg>